<?xml version="1.0" standalone="no"?><!DOCTYPE svg PUBLIC "-//W3C//DTD SVG 1.1//EN" "http://www.w3.org/Graphics/SVG/1.1/DTD/svg11.dtd"><svg t="1621066412000" class="icon" viewBox="0 0 1024 1024" version="1.1" xmlns="http://www.w3.org/2000/svg" p-id="794" xmlns:xlink="http://www.w3.org/1999/xlink" width="16" height="16"><defs><style type="text/css"></style></defs><path d="M516.55111111 695.18222222c0 5.00622222 3.86844445 9.10222222 8.53333334 9.10222223h210.48888888c4.66488889 0 8.53333333-4.096 8.53333334-9.10222223v-54.61333333c0-5.00622222-3.86844445-9.10222222-8.53333334-9.10222222h-210.48888888c-4.66488889 0-8.53333333 4.096-8.53333334 9.10222222v54.61333333zM294.79822222 702.12266667l218.45333333-183.18222222c4.32355555-3.64088889 4.32355555-10.35377778 0-13.99466667l-218.45333333-183.06844445c-5.91644445-5.00622222-14.90488889-0.79644445-14.90488889 6.94044445v71.33866667c0 2.73066667 1.13777778 5.23377778 3.29955556 6.94044444L408.12088889 512l-124.928 104.90311111c-2.048 1.70666667-3.29955555 4.32355555-3.29955556 6.94044444V695.18222222c0 7.73688889 8.98844445 11.94666667 14.90488889 6.94044445z" p-id="795"></path><path d="M930.70222222 56.88888889H93.29777778c-20.13866667 0-36.40888889 16.27022222-36.40888889 36.40888889v837.40444444c0 20.13866667 16.27022222 36.40888889 36.40888889 36.40888889h837.40444444c20.13866667 0 36.40888889-16.27022222 36.40888889-36.40888889V93.29777778c0-20.13866667-16.27022222-36.40888889-36.40888889-36.40888889z m-45.51111111 828.30222222H138.80888889V138.80888889h746.38222222v746.38222222z" p-id="796"></path></svg>