<?xml version="1.0" standalone="no"?><!DOCTYPE svg PUBLIC "-//W3C//DTD SVG 1.1//EN" "http://www.w3.org/Graphics/SVG/1.1/DTD/svg11.dtd"><svg t="1639573054056" class="icon" viewBox="0 0 1024 1024" version="1.1" xmlns="http://www.w3.org/2000/svg" p-id="922" xmlns:xlink="http://www.w3.org/1999/xlink" width="200" height="200"><defs><style type="text/css"></style></defs><path d="M512 748.65777778m-54.61333333 0a54.61333333 54.61333333 0 1 0 109.22666666 0 54.61333333 54.61333333 0 1 0-109.22666666 0Z" p-id="923"></path><path d="M475.59111111 402.77333333v209.35111112c0 5.00622222 4.096 9.10222222 9.10222222 9.10222222h54.61333334c5.00622222 0 9.10222222-4.096 9.10222222-9.10222222V402.77333333c0-5.00622222-4.096-9.10222222-9.10222222-9.10222222h-54.61333334c-5.00622222 0-9.10222222 4.096-9.10222222 9.10222222z" p-id="924"></path><path d="M1016.832 903.39555555l-473.31555555-819.2c-7.05422222-12.17422222-19.22844445-18.20444445-31.51644445-18.20444444s-24.576 6.03022222-31.51644445 18.20444444l-473.31555555 819.2C-6.82666667 927.744 10.69511111 958.00888889 38.68444445 958.00888889h946.6311111c27.98933333 0 45.51111111-30.26488889 31.51644445-54.61333334z m-891.44888889-31.744L512 202.41066667l386.61688889 669.24088888H125.38311111z" p-id="925"></path></svg>