<?xml version="1.0" standalone="no"?><!DOCTYPE svg PUBLIC "-//W3C//DTD SVG 1.1//EN" "http://www.w3.org/Graphics/SVG/1.1/DTD/svg11.dtd"><svg t="1639290194521" class="icon" viewBox="0 0 1024 1024" version="1.1" xmlns="http://www.w3.org/2000/svg" p-id="1545" xmlns:xlink="http://www.w3.org/1999/xlink" width="200" height="200"><defs><style type="text/css"></style></defs><path d="M393.67111111 432.35555555h546.13333334c5.00622222 0 9.10222222-4.096 9.10222222-9.10222222v-63.71555555c0-5.00622222-4.096-9.10222222-9.10222222-9.10222223H393.67111111c-5.00622222 0-9.10222222 4.096-9.10222222 9.10222223v63.71555555c0 5.00622222 4.096 9.10222222 9.10222222 9.10222222zM384.56888889 664.46222222c0 5.00622222 4.096 9.10222222 9.10222222 9.10222223h546.13333334c5.00622222 0 9.10222222-4.096 9.10222222-9.10222223v-63.71555555c0-5.00622222-4.096-9.10222222-9.10222222-9.10222222H393.67111111c-5.00622222 0-9.10222222 4.096-9.10222222 9.10222222v63.71555555zM958.00888889 111.50222222H65.99111111c-5.00622222 0-9.10222222 4.096-9.10222222 9.10222223v63.71555555c0 5.00622222 4.096 9.10222222 9.10222222 9.10222222h892.01777778c5.00622222 0 9.10222222-4.096 9.10222222-9.10222222v-63.71555555c0-5.00622222-4.096-9.10222222-9.10222222-9.10222223zM958.00888889 830.57777778H65.99111111c-5.00622222 0-9.10222222 4.096-9.10222222 9.10222222v63.71555555c0 5.00622222 4.096 9.10222222 9.10222222 9.10222223h892.01777778c5.00622222 0 9.10222222-4.096 9.10222222-9.10222223v-63.71555555c0-5.00622222-4.096-9.10222222-9.10222222-9.10222222zM91.47733333 660.02488889L269.312 519.96444445c5.12-3.98222222 5.12-11.71911111 0-15.81511112L91.47733333 363.97511111c-6.59911111-5.23377778-16.384-0.56888889-16.384 7.85066667v280.23466667c0 8.41955555 9.67111111 13.19822222 16.384 7.96444444z" p-id="1546"></path></svg>