<?xml version="1.0" standalone="no"?><!DOCTYPE svg PUBLIC "-//W3C//DTD SVG 1.1//EN" "http://www.w3.org/Graphics/SVG/1.1/DTD/svg11.dtd"><svg t="1644739169404" class="icon" viewBox="0 0 1024 1024" version="1.1" xmlns="http://www.w3.org/2000/svg" p-id="932" xmlns:xlink="http://www.w3.org/1999/xlink" width="200" height="200"><defs><style type="text/css"></style></defs><path d="M985.31555555 111.50222222H38.68444445c-20.13866667 0-36.40888889 16.27022222-36.4088889 36.40888889v728.17777778c0 20.13866667 16.27022222 36.40888889 36.4088889 36.40888889h946.6311111c20.13866667 0 36.40888889-16.27022222 36.4088889-36.40888889V147.91111111c0-20.13866667-16.27022222-36.40888889-36.4088889-36.40888889z m-45.5111111 236.65777778H698.59555555V193.42222222h241.2088889v154.73777778z m0 254.86222222H698.59555555V420.97777778h241.2088889v182.04444444zM398.22222222 420.97777778h227.55555556v182.04444444H398.22222222V420.97777778z m227.55555556-72.81777778H398.22222222V193.42222222h227.55555556v154.73777778z m-541.58222223 72.81777778h241.2088889v182.04444444H84.19555555V420.97777778z m0-227.55555556h241.2088889v154.73777778H84.19555555V193.42222222z m0 482.41777778h241.2088889v154.73777778H84.19555555V675.84z m314.02666667 0h227.55555556v154.73777778H398.22222222V675.84z m541.58222223 154.73777778H698.59555555V675.84h241.2088889v154.73777778z" p-id="933"></path></svg>