<?xml version="1.0" standalone="no"?><!DOCTYPE svg PUBLIC "-//W3C//DTD SVG 1.1//EN" "http://www.w3.org/Graphics/SVG/1.1/DTD/svg11.dtd"><svg t="1621066416182" class="icon" viewBox="0 0 1024 1024" version="1.1" xmlns="http://www.w3.org/2000/svg" p-id="941" xmlns:xlink="http://www.w3.org/1999/xlink" width="16" height="16"><defs><style type="text/css"></style></defs><path d="M958.00888889 111.50222222H65.99111111c-5.00622222 0-9.10222222 4.096-9.10222222 9.10222223v72.81777777c0 5.00622222 4.096 9.10222222 9.10222222 9.10222223h892.01777778c5.00622222 0 9.10222222-4.096 9.10222222-9.10222223v-72.81777777c0-5.00622222-4.096-9.10222222-9.10222222-9.10222223zM958.00888889 821.47555555H65.99111111c-5.00622222 0-9.10222222 4.096-9.10222222 9.10222223v72.81777777c0 5.00622222 4.096 9.10222222 9.10222222 9.10222223h892.01777778c5.00622222 0 9.10222222-4.096 9.10222222-9.10222223v-72.81777777c0-5.00622222-4.096-9.10222222-9.10222222-9.10222223zM958.00888889 466.48888889H65.99111111c-5.00622222 0-9.10222222 4.096-9.10222222 9.10222222v72.81777778c0 5.00622222 4.096 9.10222222 9.10222222 9.10222222h892.01777778c5.00622222 0 9.10222222-4.096 9.10222222-9.10222222v-72.81777778c0-5.00622222-4.096-9.10222222-9.10222222-9.10222222z" p-id="942"></path></svg>