<?xml version="1.0" standalone="no"?><!DOCTYPE svg PUBLIC "-//W3C//DTD SVG 1.1//EN" "http://www.w3.org/Graphics/SVG/1.1/DTD/svg11.dtd"><svg t="1641101333531" class="icon" viewBox="0 0 1024 1024" version="1.1" xmlns="http://www.w3.org/2000/svg" p-id="1743" xmlns:xlink="http://www.w3.org/1999/xlink" width="200" height="200"><defs><style type="text/css"></style></defs><path d="M385.78251852 427.04592592h582.54222223c5.33997037 0 9.70903703-4.36906667 9.70903703-9.70903703v-67.96325926c0-5.33997037-4.36906667-9.70903703-9.70903703-9.70903704H385.78251852c-5.33997037 0-9.70903703 4.36906667-9.70903704 9.70903704v67.96325926c0 5.33997037 4.36906667 9.70903703 9.70903704 9.70903703zM376.07348148 674.62637037c0 5.33997037 4.36906667 9.70903703 9.70903704 9.70903704h582.54222223c5.33997037 0 9.70903703-4.36906667 9.70903703-9.70903704v-67.96325926c0-5.33997037-4.36906667-9.70903703-9.70903703-9.70903703H385.78251852c-5.33997037 0-9.70903703 4.36906667-9.70903704 9.70903703v67.96325926zM987.74281482 84.80237037H36.25718518c-5.33997037 0-9.70903703 4.36906667-9.70903703 9.70903704v67.96325926c0 5.33997037 4.36906667 9.70903703 9.70903703 9.70903703h951.48562964c5.33997037 0 9.70903703-4.36906667 9.70903703-9.70903703v-67.96325926c0-5.33997037-4.36906667-9.70903703-9.70903703-9.70903704zM987.74281482 851.8162963H36.25718518c-5.33997037 0-9.70903703 4.36906667-9.70903703 9.70903703v67.96325926c0 5.33997037 4.36906667 9.70903703 9.70903703 9.70903704h951.48562964c5.33997037 0 9.70903703-4.36906667 9.70903703-9.70903704v-67.96325926c0-5.33997037-4.36906667-9.70903703-9.70903703-9.70903703zM63.44248889 669.89321482L253.1328 520.49540741c5.46133333-4.2477037 5.46133333-12.50038518 0-16.86945186L63.44248889 354.10678518c-7.03905185-5.5826963-17.47626667-0.60681482-17.47626667 8.37404445v298.91697778c0 8.98085925 10.31585185 14.0781037 17.47626667 8.49540741z" p-id="1744"></path></svg>